<?xml version="1.0" standalone="no"?>
<!DOCTYPE svg PUBLIC "-//W3C//DTD SVG 20010904//EN"
 "http://www.w3.org/TR/2001/REC-SVG-20010904/DTD/svg10.dtd">
<svg version="1.0" xmlns="http://www.w3.org/2000/svg"
 width="386.000000pt" height="386.000000pt" viewBox="0 0 386.000000 386.000000"
 preserveAspectRatio="xMidYMid meet">
<metadata>
Created by potrace 1.14, written by Peter Selinger 2001-2017
</metadata>
<g transform="translate(0.000000,386.000000) scale(0.100000,-0.100000)"
fill="#000000" stroke="none">
<path d="M1937 3824 c-3 -4 -41 -8 -84 -10 -112 -5 -181 -12 -238 -24 -27 -6
-61 -12 -75 -14 -21 -3 -67 -13 -140 -31 -32 -8 -106 -36 -124 -46 -12 -7 -16
-7 -12 0 4 6 -10 2 -31 -9 -62 -32 -173 -80 -184 -80 -6 0 -8 -4 -5 -9 4 -5
-7 -12 -24 -16 -16 -4 -30 -10 -30 -13 0 -4 -19 -16 -41 -27 -23 -10 -43 -25
-46 -32 -3 -7 -8 -11 -12 -9 -4 3 -22 -8 -41 -24 -19 -16 -37 -27 -41 -24 -4
2 -10 -5 -14 -16 -4 -11 -10 -18 -14 -16 -4 3 -27 -13 -49 -35 -23 -22 -42
-37 -42 -33 0 4 -31 -25 -70 -63 -38 -39 -72 -68 -75 -65 -3 3 -5 0 -5 -6 0
-6 -13 -25 -30 -42 -16 -16 -26 -30 -23 -30 4 0 -3 -9 -15 -20 -12 -12 -22
-25 -22 -31 0 -6 -4 -7 -10 -4 -5 3 -10 1 -10 -5 0 -11 -13 -29 -60 -87 -6 -7
-10 -17 -10 -23 0 -5 -5 -10 -12 -10 -6 0 -9 -3 -5 -6 3 -3 -2 -14 -11 -24 -9
-10 -30 -46 -47 -79 -16 -33 -34 -61 -38 -61 -5 0 -6 -4 -2 -9 3 -5 -2 -16
-10 -25 -9 -8 -15 -18 -15 -21 0 -3 -9 -27 -21 -53 -12 -26 -21 -53 -20 -59 1
-7 -3 -13 -9 -13 -6 0 -8 -4 -5 -10 3 -5 2 -10 -4 -10 -6 0 -8 -7 -5 -15 4 -8
1 -15 -7 -15 -7 0 -10 -3 -6 -6 3 -4 0 -22 -8 -41 -8 -19 -14 -37 -13 -41 1
-4 -1 -14 -5 -22 -3 -8 -9 -28 -13 -45 -10 -40 -11 -44 -14 -50 -1 -3 -4 -14
-5 -25 -1 -11 -4 -21 -5 -22 -1 -2 -3 -14 -5 -28 -1 -14 -5 -38 -9 -55 -9 -43
-19 -141 -20 -202 -1 -28 -4 -49 -8 -46 -5 2 -8 0 -8 -6 0 -5 4 -12 10 -16 6
-4 6 -15 0 -30 -7 -18 -6 -25 3 -25 8 0 7 -4 -3 -10 -8 -5 -10 -10 -5 -10 6 0
11 -28 12 -63 2 -93 7 -157 13 -157 3 0 5 -10 6 -22 2 -55 9 -98 14 -98 3 0 7
-14 8 -31 1 -17 7 -40 13 -51 6 -11 8 -26 5 -34 -3 -8 -1 -14 4 -14 6 0 9 -3
9 -7 -1 -5 0 -11 1 -15 1 -5 3 -11 4 -15 9 -34 31 -99 36 -103 6 -6 11 -26 13
-52 1 -9 4 -15 8 -13 6 4 34 -74 31 -87 -1 -5 2 -8 8 -8 5 0 10 -5 10 -11 0
-6 10 -25 22 -42 12 -17 15 -27 7 -22 -7 5 -1 -8 14 -28 15 -20 25 -37 22 -37
-3 0 3 -9 14 -21 11 -12 25 -34 31 -50 7 -16 16 -29 21 -29 5 0 9 -7 9 -15 0
-8 4 -15 8 -15 4 0 15 -12 24 -28 20 -32 43 -62 81 -104 15 -16 27 -34 27 -40
0 -5 4 -6 10 -3 5 3 10 2 10 -3 0 -14 107 -122 114 -115 3 4 6 -1 6 -10 0 -9
7 -17 16 -17 8 0 13 -4 10 -8 -3 -5 6 -15 19 -22 14 -7 25 -17 25 -22 0 -4 7
-8 15 -8 8 0 15 -7 15 -16 0 -8 4 -13 8 -10 5 3 20 -6 35 -20 15 -14 27 -22
27 -17 0 4 6 -1 13 -10 23 -31 289 -181 301 -170 3 4 6 2 6 -4 0 -10 29 -24
55 -27 6 -1 17 -6 25 -11 8 -5 20 -10 25 -12 6 -1 30 -9 55 -18 25 -9 52 -19
60 -21 8 -2 36 -10 63 -18 26 -8 47 -12 47 -9 0 3 6 1 13 -5 6 -5 30 -13 52
-16 46 -7 80 -14 80 -16 0 -1 23 -4 50 -6 28 -2 73 -7 100 -10 78 -8 246 -10
251 -3 2 4 20 5 40 2 29 -4 35 -2 28 9 -6 10 -5 11 8 1 8 -7 17 -11 19 -9 2 2
24 7 49 10 25 3 56 7 70 9 14 3 45 8 70 12 25 3 47 10 50 14 3 4 12 6 20 6 8
0 35 5 60 13 25 7 50 15 55 16 29 6 121 40 131 47 6 5 14 6 17 2 4 -3 7 0 7 7
0 7 3 10 6 7 4 -3 16 -1 28 5 11 7 27 13 35 14 8 2 17 8 21 14 4 7 9 11 11 11
12 -4 69 23 69 32 0 6 3 7 6 4 4 -4 19 2 34 13 16 11 33 20 39 20 6 0 11 5 11
10 0 6 4 10 10 10 17 0 169 104 164 112 -3 4 1 8 9 8 8 0 30 16 50 35 20 19
38 35 41 35 10 0 111 103 108 111 -1 5 1 8 5 7 5 -1 21 10 37 25 16 15 26 27
23 27 -4 0 4 10 16 23 12 13 25 22 30 20 4 -2 7 2 7 10 0 8 7 20 15 27 8 7 13
15 10 19 -2 4 5 14 16 21 10 8 19 20 19 27 0 7 4 13 9 13 5 0 14 14 20 30 5
17 14 30 20 30 10 0 27 39 23 53 -1 5 2 6 7 3 5 -4 17 12 27 34 10 22 21 40
26 40 4 0 7 3 6 8 -1 4 3 17 10 30 7 12 9 22 5 22 -4 0 -3 4 3 8 15 9 48 83
45 100 -1 7 5 15 13 18 9 3 13 10 10 15 -3 6 0 16 6 24 7 8 9 15 5 15 -4 0 -2
6 4 13 6 8 8 17 4 20 -3 4 -1 7 5 7 6 0 9 7 6 15 -4 8 -2 15 3 15 5 0 10 9 11
20 4 44 6 50 15 50 6 0 8 3 5 6 -3 3 -1 22 4 42 6 20 12 46 13 57 2 11 6 31 9
45 11 49 19 106 19 143 0 20 3 37 7 37 9 0 7 357 -2 366 -4 4 -3 13 3 21 7 7
7 13 2 13 -6 0 -10 12 -11 28 0 15 -4 43 -8 62 -4 19 -7 43 -8 53 0 9 -3 17
-6 17 -4 0 -6 10 -5 23 1 12 -2 28 -8 35 -5 6 -6 12 -1 12 5 0 2 5 -6 10 -13
9 -13 11 0 19 13 9 13 11 -1 16 -13 5 -19 24 -22 73 0 6 -4 12 -8 12 -7 0 -24
59 -21 73 1 4 -3 7 -9 7 -5 0 -7 5 -4 10 3 6 1 10 -4 10 -6 0 -11 8 -11 18 0
10 -8 33 -17 53 -10 19 -24 51 -32 72 -8 20 -18 37 -22 37 -6 0 -16 24 -24 59
-2 8 -8 17 -12 20 -5 3 -21 27 -36 53 -15 26 -33 53 -40 60 -7 7 -18 25 -24
41 -7 15 -17 27 -23 27 -5 0 -10 7 -10 15 0 8 -4 15 -10 15 -5 0 -10 4 -10 10
0 5 -18 27 -40 50 -21 22 -37 40 -34 40 7 0 -166 169 -202 198 -16 12 -43 33
-60 47 -18 14 -37 25 -44 25 -6 0 -8 5 -5 10 3 6 0 10 -8 10 -7 0 -23 9 -35
20 -12 11 -26 20 -32 20 -5 0 -10 4 -10 9 0 5 -8 11 -17 15 -35 11 -122 64
-116 70 4 3 -6 6 -20 6 -15 0 -27 4 -27 8 0 5 -18 15 -40 22 -22 7 -40 17 -40
22 0 4 -9 8 -20 8 -11 0 -28 4 -38 9 -31 16 -139 58 -154 60 -5 1 -9 1 -10 2
-2 0 -11 2 -20 5 -10 2 -24 6 -30 7 -7 2 -31 8 -53 12 -55 12 -55 12 -57 15
-5 3 -40 9 -78 14 -19 2 -56 7 -82 11 -26 4 -76 8 -111 9 -35 1 -68 5 -74 9
-5 4 -13 4 -16 1z"/>
</g>
</svg>
